<?xml version="1.0" encoding="UTF-8"?>

<svg version="1.2" baseProfile="tiny" width="210mm" height="297mm" viewBox="0 0 21000 29700" preserveAspectRatio="xMidYMid" fill-rule="evenodd" stroke-width="28.222" stroke-linejoin="round" xmlns="http://www.w3.org/2000/svg" xmlns:xlink="http://www.w3.org/1999/xlink" xml:space="preserve">
 <g visibility="visible" id="MasterSlide_1_Default">
  <desc>Master slide
  </desc>
  <rect fill="none" stroke="none" x="0" y="0" width="21000" height="29700"/>
 </g>
 <g visibility="visible" id="Slide_1_page1">
  <g>
   <path fill="none" stroke="rgb(0,0,0)" id="Drawing_1_0" stroke-width="152" stroke-linejoin="round" d="M 9890,7985 C 12410,7985 14335,9910 14335,12430 14335,14950 12410,16875 9890,16875 7370,16875 5445,14950 5445,12430 5445,9910 7370,7985 9890,7985 Z"/>
   <rect fill="none" stroke="none" x="5445" y="7985" width="8891" height="8891"/>
  </g>
  <g>
   <path fill="none" stroke="rgb(0,0,0)" id="Drawing_2_0" stroke-width="152" stroke-linejoin="round" d="M 9890,7985 L 9890,16875"/>
  </g>
  <g>
   <path fill="rgb(0,0,0)" stroke="none" d="M 5521,12430 C 5521,12454 5525,12476 5535,12498 5546,12522 5562,12545 5585,12568 5609,12593 5637,12615 5669,12635 5703,12655 5742,12673 5787,12688 5881,12720 5972,12735 6080,12735 6188,12735 6279,12720 6373,12688 6418,12673 6457,12655 6491,12635 6523,12615 6551,12593 6575,12568 6598,12545 6614,12522 6625,12498 6635,12476 6639,12454 6639,12430 L 6791,12430 C 6791,12476 6782,12519 6764,12560 6747,12598 6721,12636 6685,12673 6651,12708 6613,12739 6569,12765 6527,12790 6478,12812 6422,12832 6313,12870 6206,12887 6080,12887 5954,12887 5847,12870 5738,12832 5682,12812 5633,12790 5591,12765 5547,12739 5509,12708 5475,12673 5439,12636 5413,12598 5396,12560 5378,12519 5369,12476 5369,12430 L 5521,12430 Z M 8061,12430 C 8061,12454 8065,12476 8075,12498 8086,12522 8102,12545 8125,12568 8149,12593 8177,12615 8209,12635 8243,12655 8282,12673 8327,12688 8421,12720 8512,12735 8620,12735 8728,12735 8819,12720 8913,12688 8958,12673 8997,12655 9031,12635 9063,12615 9091,12593 9115,12568 9138,12545 9154,12522 9165,12498 9175,12476 9179,12454 9179,12430 L 9331,12430 C 9331,12476 9322,12519 9304,12560 9287,12598 9261,12636 9225,12673 9191,12708 9153,12739 9109,12765 9067,12790 9018,12812 8962,12832 8853,12870 8746,12887 8620,12887 8494,12887 8387,12870 8278,12832 8222,12812 8173,12790 8131,12765 8087,12739 8049,12708 8015,12673 7979,12636 7953,12598 7936,12560 7918,12519 7909,12476 7909,12430 L 8061,12430 Z M 10601,12430 C 10601,12454 10605,12476 10615,12498 10626,12522 10642,12545 10665,12568 10689,12593 10717,12615 10749,12635 10783,12655 10822,12673 10867,12688 10961,12720 11052,12735 11160,12735 11268,12735 11359,12720 11453,12688 11498,12673 11537,12655 11571,12635 11603,12615 11631,12593 11655,12568 11678,12545 11694,12522 11705,12498 11715,12476 11719,12454 11719,12430 L 11871,12430 C 11871,12476 11862,12519 11844,12560 11827,12598 11801,12636 11765,12673 11731,12708 11693,12739 11649,12765 11607,12790 11558,12812 11502,12832 11393,12870 11286,12887 11160,12887 11034,12887 10927,12870 10818,12832 10762,12812 10713,12790 10671,12765 10627,12739 10589,12708 10555,12673 10519,12636 10493,12598 10476,12560 10458,12519 10449,12476 10449,12430 L 10601,12430 Z M 13141,12430 C 13141,12454 13145,12476 13155,12498 13166,12522 13182,12545 13205,12568 13229,12593 13257,12615 13289,12635 13323,12655 13362,12673 13407,12688 13501,12720 13592,12735 13700,12735 13808,12735 13899,12720 13993,12688 14038,12673 14077,12655 14111,12635 14143,12615 14171,12593 14195,12568 14218,12545 14234,12522 14245,12498 14255,12476 14259,12454 14259,12430 L 14411,12430 C 14411,12476 14402,12519 14384,12560 14367,12598 14341,12636 14305,12673 14271,12708 14233,12739 14189,12765 14147,12790 14098,12812 14042,12832 13933,12870 13826,12887 13700,12887 13574,12887 13467,12870 13358,12832 13302,12812 13253,12790 13211,12765 13167,12739 13129,12708 13095,12673 13059,12636 13033,12598 13016,12560 12998,12519 12989,12476 12989,12430 L 13141,12430 Z M 12989,12430 C 12989,12406 12985,12384 12975,12362 12964,12338 12948,12315 12925,12292 12901,12267 12873,12245 12841,12225 12807,12205 12768,12187 12723,12172 12629,12140 12538,12125 12430,12125 12322,12125 12231,12140 12137,12172 12092,12187 12053,12205 12019,12225 11987,12245 11959,12267 11935,12292 11912,12315 11896,12338 11885,12362 11875,12384 11871,12406 11871,12430 L 11719,12430 C 11719,12384 11728,12341 11746,12300 11763,12262 11789,12224 11825,12187 11859,12152 11897,12121 11941,12095 11983,12070 12032,12048 12088,12028 12197,11990 12304,11973 12430,11973 12556,11973 12663,11990 12772,12028 12828,12048 12877,12070 12919,12095 12963,12121 13001,12152 13035,12187 13071,12224 13097,12262 13114,12300 13132,12341 13141,12384 13141,12430 L 12989,12430 Z M 10449,12430 C 10449,12406 10445,12384 10435,12362 10424,12338 10408,12315 10385,12292 10361,12267 10333,12245 10301,12225 10267,12205 10228,12187 10183,12172 10089,12140 9998,12125 9890,12125 9782,12125 9691,12140 9597,12172 9552,12187 9513,12205 9479,12225 9447,12245 9419,12267 9395,12292 9372,12315 9356,12338 9345,12362 9335,12384 9331,12406 9331,12430 L 9179,12430 C 9179,12384 9188,12341 9206,12300 9223,12262 9249,12224 9285,12187 9319,12152 9357,12121 9401,12095 9443,12070 9492,12048 9548,12028 9657,11990 9764,11973 9890,11973 10016,11973 10123,11990 10232,12028 10288,12048 10337,12070 10379,12095 10423,12121 10461,12152 10495,12187 10531,12224 10557,12262 10574,12300 10592,12341 10601,12384 10601,12430 L 10449,12430 Z M 7909,12430 C 7909,12406 7905,12384 7895,12362 7884,12338 7868,12315 7845,12292 7821,12267 7793,12245 7761,12225 7727,12205 7688,12187 7643,12172 7549,12140 7458,12125 7350,12125 7242,12125 7151,12140 7057,12172 7012,12187 6973,12205 6939,12225 6907,12245 6879,12267 6855,12292 6832,12315 6816,12338 6805,12362 6795,12384 6791,12406 6791,12430 L 6639,12430 C 6639,12384 6648,12341 6666,12300 6683,12262 6709,12224 6745,12187 6779,12152 6817,12121 6861,12095 6903,12070 6952,12048 7008,12028 7117,11990 7224,11973 7350,11973 7476,11973 7583,11990 7692,12028 7748,12048 7797,12070 7839,12095 7883,12121 7921,12152 7955,12187 7991,12224 8017,12262 8034,12300 8052,12341 8061,12384 8061,12430 L 7909,12430 Z"/>
   <rect fill="none" stroke="none" x="5369" y="11973" width="9043" height="915"/>
  </g>
  <g>
   <path fill="rgb(0,0,0)" stroke="none" d="M 10014,12430 C 10014,10883 10267,9413 10734,8060 10785,8069 10835,8078 10885,8089 10418,9433 10166,10893 10166,12430 10166,13967 10418,15427 10885,16771 10835,16782 10785,16791 10734,16800 10267,15447 10014,13977 10014,12430 Z"/>
   <rect fill="none" stroke="none" x="10014" y="8059" width="872" height="8743"/>
  </g>
  <g>
   <path fill="rgb(0,0,0)" stroke="none" d="M 10712,14970 C 10394,14197 10220,13340 10220,12430 10220,11520 10394,10663 10712,9890 10947,9318 11261,8791 11642,8323 11691,8343 11739,8364 11787,8386 11403,8851 11087,9376 10852,9948 10542,10703 10372,11540 10372,12430 10372,13320 10542,14157 10852,14912 11087,15484 11403,16009 11787,16474 11739,16496 11691,16517 11642,16537 11261,16069 10947,15542 10712,14970 Z"/>
   <rect fill="none" stroke="none" x="10220" y="8323" width="1569" height="8215"/>
  </g>
  <g>
   <path fill="rgb(0,0,0)" stroke="none" d="M 11541,15199 C 11193,14850 10914,14433 10721,13965 10529,13498 10424,12980 10424,12430 10424,11880 10529,11362 10721,10895 10914,10427 11193,10010 11541,9661 11856,9346 12228,9087 12642,8899 12688,8933 12732,8969 12776,9006 12350,9189 11969,9449 11649,9769 11315,10103 11046,10503 10862,10952 10677,11402 10576,11900 10576,12430 10576,12960 10677,13458 10862,13908 11046,14357 11315,14757 11649,15091 11969,15411 12350,15671 12776,15854 12732,15891 12688,15927 12642,15961 12228,15773 11856,15514 11541,15199 Z"/>
   <rect fill="none" stroke="none" x="10424" y="8898" width="2353" height="7065"/>
  </g>
  <g>
   <path fill="rgb(0,0,0)" stroke="none" d="M 9766,12430 C 9766,13977 9513,15447 9046,16800 8995,16791 8945,16782 8895,16771 9362,15427 9614,13967 9614,12430 9614,10893 9362,9433 8895,8089 8945,8078 8995,8069 9046,8060 9513,9413 9766,10883 9766,12430 Z"/>
   <rect fill="none" stroke="none" x="8895" y="8059" width="873" height="8743"/>
  </g>
  <g>
   <path fill="rgb(0,0,0)" stroke="none" d="M 9068,9890 C 9386,10663 9560,11520 9560,12430 9560,13340 9386,14197 9068,14970 8833,15542 8519,16069 8138,16537 8089,16517 8041,16496 7993,16474 8377,16009 8693,15484 8928,14912 9238,14157 9408,13320 9408,12430 9408,11540 9238,10703 8928,9948 8693,9376 8377,8851 7993,8386 8041,8364 8089,8343 8138,8323 8519,8791 8833,9318 9068,9890 Z"/>
   <rect fill="none" stroke="none" x="7992" y="8323" width="1570" height="8215"/>
  </g>
  <g>
   <path fill="rgb(0,0,0)" stroke="none" d="M 8239,9661 C 8587,10010 8866,10427 9059,10895 9251,11362 9356,11880 9356,12430 9356,12980 9251,13498 9059,13965 8866,14433 8587,14850 8239,15199 7924,15514 7552,15773 7138,15961 7092,15927 7048,15891 7004,15854 7430,15671 7811,15411 8131,15091 8465,14757 8734,14357 8918,13908 9103,13458 9204,12960 9204,12430 9204,11900 9103,11402 8918,10952 8734,10503 8465,10103 8131,9769 7811,9449 7430,9189 7004,9006 7048,8969 7092,8933 7138,8899 7552,9087 7924,9346 8239,9661 Z"/>
   <rect fill="none" stroke="none" x="7004" y="8898" width="2353" height="7065"/>
  </g>
  <g>
   <path fill="none" stroke="rgb(0,0,0)" id="Drawing_10_0" stroke-width="152" stroke-linejoin="round" d="M 9891,6716 C 13131,6716 15606,9191 15606,12431 15606,15671 13131,18146 9891,18146 6651,18146 4176,15671 4176,12431 4176,9191 6651,6716 9891,6716 Z"/>
   <rect fill="none" stroke="none" x="4176" y="6716" width="11431" height="11431"/>
  </g>
 </g>
</svg>